Patient4_TMGait_0pt8_01_right_06_GRF.mot
version=1
nRows=45
nColumns=19
inDegrees=no
endheader
time	F1x	F1y	F1z	M1x	M1y	M1z	F2x	F2y	F2z	M2x	M2y	M2z	EC1x	EC1y	EC1z	EC2x	EC2y	EC2z
6.45	14.8218	703.2163	51.454	-257.788	-52.1579	774.8935	9.6895	-7.642	4.146	-2.7801	-4.9742	-13.7199	-0.0592	0.0182	-0.0073	-0.0462	0.0165	0.9585
6.4614	10.6075	705.4521	53.5591	-260.0824	-54.8838	768.1201	6.2464	-3.9292	2.9095	-1.5099	-3.2413	-7.6079	-0.0592	0.0182	-0.0073	-0.0462	0.0165	0.9585
6.4727	7.9981	708.735	55.2	-262.7188	-56.5173	762.1717	3.3634	-0.79198	1.7931	-0.40452	-1.7416	-2.4716	-0.0592	0.0182	-0.0073	-0.0462	0.0165	0.9585
6.4841	7.1781	713.0191	56.3204	-265.5873	-56.9717	757.3663	1.1515	1.6322	0.89312	0.47042	-0.56683	1.4645	-0.0592	0.0182	-0.0073	-0.0462	0.0165	0.9585
6.4954	7.9905	718.1097	56.9862	-268.5692	-56.3917	753.667	-0.36645	3.3333	0.22829	1.1024	0.26614	4.18	-0.0592	0.0182	-0.0073	-0.0462	0.0165	0.9585
6.5068	10.1518	723.6236	57.3622	-271.5121	-55.0496	750.7551	-1.3394	4.4253	-0.2236	1.5216	0.81357	5.8865	-0.0592	0.0182	-0.0073	-0.0462	0.0165	0.9585
6.5181	13.2937	729.116	57.5505	-274.258	-53.1851	748.1799	-1.8611	4.9979	-0.50923	1.7582	1.1388	6.7335	-0.0592	0.0182	-0.0073	-0.0462	0.0165	0.9585
6.5295	17.0631	734.1106	57.6852	-276.6453	-51.0536	745.4389	-2.1066	5.1674	-0.67245	1.8457	1.321	6.9517	-0.0592	0.0182	-0.0073	-0.0462	0.0165	0.9585
6.5409	21.1781	738.1801	57.7977	-278.5349	-48.79	742.0791	-2.156	4.9691	-0.7552	1.7965	1.4143	6.6307	-0.0592	0.0182	-0.0073	-0.0462	0.0165	0.9585
6.5522	25.4156	740.978	57.9684	-279.8124	-46.5512	737.7173	-2.1488	4.445	-0.80407	1.6187	1.4877	5.893	-0.0592	0.0182	-0.0073	-0.0462	0.0165	0.9585
6.5636	29.6824	742.2421	58.2191	-280.3949	-44.4033	732.0789	-2.0961	3.529	-0.83699	1.2921	1.5504	4.6632	-0.0592	0.0182	-0.0073	-0.0462	0.0165	0.9585
6.5749	33.955	741.8711	58.6258	-280.2495	-42.4372	725.0554	-2.0546	2.1623	-0.87632	0.79274	1.6272	2.8965	-0.0592	0.0182	-0.0073	-0.0462	0.0165	0.9585
6.5863	38.2366	739.934	59.2345	-279.4046	-40.6989	716.72	-1.967	0.23485	-0.9141	0.086694	1.6853	0.44826	-0.0592	0.0182	-0.0073	-0.0462	0.0165	0.9585
6.5976	42.5901	736.7386	60.0837	-277.9706	-39.2079	707.4033	-1.8273	-2.2737	-0.94019	-0.83318	1.6949	-2.6841	-0.0592	0.0182	-0.0073	-0.0462	0.0165	0.9585
6.609	47.0328	732.7535	61.1959	-276.117	-37.9767	697.5854	-1.5228	-5.2994	-0.92665	-1.9351	1.5781	-6.4451	-0.0592	0.0182	-0.0073	-0.0462	0.0165	0.9585
6.6204	51.5798	728.4926	62.529	-274.0257	-36.9601	687.7923	-0.99705	-8.5059	-0.81765	-3.0937	1.2403	-10.4118	-0.0592	0.0182	-0.0073	-0.0462	0.0165	0.9585
6.6317	56.1688	724.3415	64.0641	-271.8263	-36.1515	678.4535	-0.10795	-11.2681	-0.54888	-4.0722	0.55619	-13.8445	-0.0592	0.0182	-0.0073	-0.0462	0.0165	0.9585
6.6431	60.6517	720.4274	65.7489	-269.5563	-35.5458	669.7506	1.2203	-12.4631	-0.034738	-4.4601	-0.60296	-15.366	-0.0592	0.0182	-0.0073	-0.0462	0.0165	0.9585
6.6544	64.8085	716.6348	67.5509	-267.1619	-35.185	661.6681	3.0893	-10.4557	0.80666	-3.6584	-2.3573	-12.9994	-0.0592	0.0182	-0.0073	-0.0462	0.0165	0.9585
6.6658	68.4148	712.6459	69.3798	-264.5272	-35.0701	653.9929	5.4601	-2.968	2.0499	-0.84264	-4.7665	-3.9414	-0.0592	0.0182	-0.0073	-0.0462	0.0165	0.9585
6.6771	71.2422	708.028	71.0989	-261.5113	-35.1676	646.402	8.1708	12.7619	3.7062	4.9838	-7.766	15.1896	-0.0592	0.0182	-0.0073	-0.0462	0.0165	0.9585
6.6885	73.182	702.2268	72.4977	-257.9506	-35.3546	638.4538	10.7611	39.7473	5.7059	14.8924	-11.0869	48.1121	-0.0592	0.0182	-0.0073	-0.0462	0.0165	0.9585
6.6999	74.1717	694.5227	73.2918	-253.6437	-35.4216	629.5211	12.4642	80.5816	7.8093	29.7907	-14.1376	98.0294	-0.0592	0.0182	-0.0073	-0.0462	0.0165	0.9585
6.7112	74.3142	683.9601	73.1606	-248.3255	-35.0729	618.6949	12.028	136.4816	9.5532	50.0673	-15.8786	166.5137	-0.0592	0.0182	-0.0073	-0.0462	0.0165	0.9585
6.7226	73.8124	669.3433	71.7941	-241.6603	-33.9705	604.7888	7.8118	205.9294	10.1576	75.1077	-14.7594	251.7819	-0.0592	0.0182	-0.0073	-0.0462	0.0165	0.9585
6.7339	72.9191	649.261	68.9861	-233.2408	-31.8353	586.3235	-1.4574	284.02	8.6848	103.0503	-9.1923	347.9453	-0.0592	0.0182	-0.0073	-0.0462	0.0165	0.9585
6.7453	71.7914	622.2495	64.68	-222.6214	-28.5438	561.7706	-14.9107	362.7271	4.1427	130.9262	1.6726	445.1428	-0.0592	0.0182	-0.0073	-0.0462	0.0165	0.9585
6.7566	70.3244	586.9354	59.0252	-209.3526	-24.2457	529.7243	-30.0923	433.1049	-3.7838	155.5358	17.2352	532.1399	-0.0592	0.0182	-0.0073	-0.0462	0.0165	0.9585
6.768	68.0711	542.5146	52.3682	-193.1284	-19.3877	489.4206	-44.5342	489.8383	-13.9878	175.0585	35.2223	601.954	-0.0592	0.0182	-0.0073	-0.0462	0.0165	0.9585
6.7794	64.5238	489.2756	45.117	-173.9903	-14.4933	441.15	-56.6517	532.938	-25.0228	189.584	53.2498	654.3169	-0.0592	0.0182	-0.0073	-0.0462	0.0165	0.9585
6.7907	59.2601	428.8632	37.7478	-152.4408	-10.1191	386.4624	-65.7952	565.6984	-35.5234	200.3979	69.4287	693.1684	-0.0592	0.0182	-0.0073	-0.0462	0.0165	0.9585
6.8021	52.1158	364.0656	30.6281	-129.3988	-6.6398	327.9142	-71.8721	592.3133	-44.6023	209.0857	82.6565	723.6705	-0.0592	0.0182	-0.0073	-0.0462	0.0165	0.9585
6.8134	43.2482	298.4464	24.0511	-106.0752	-4.2621	268.7504	-75.0766	616.0442	-51.6314	216.8769	92.2769	749.8622	-0.0592	0.0182	-0.0073	-0.0462	0.0165	0.9585
6.8248	33.189	235.7364	18.2335	-83.7687	-2.9926	212.3012	-75.7504	638.5886	-56.5598	224.3895	98.3796	773.8677	-0.0592	0.0182	-0.0073	-0.0462	0.0165	0.9585
6.8361	22.8243	179.1637	13.3061	-63.6208	-2.6262	161.4491	-74.3918	660.3478	-59.9238	231.7254	101.774	796.2842	-0.0592	0.0182	-0.0073	-0.0462	0.0165	0.9585
6.8475	13.1643	130.7979	9.3449	-46.3801	-2.8512	117.9974	-71.5089	680.9141	-62.3736	238.6753	103.4466	816.7468	-0.0592	0.0182	-0.0073	-0.0462	0.0165	0.9585
6.8589	5.0057	91.367	6.3004	-32.3245	-3.313	82.5651	-67.6647	699.563	-64.7662	244.908	104.5788	834.5588	-0.0592	0.0182	-0.0073	-0.0462	0.0165	0.9585
6.8702	-1.1432	60.5041	4.0725	-21.3384	-3.7284	54.8145	-63.3426	715.6347	-67.5179	250.1501	105.8467	849.0393	-0.0592	0.0182	-0.0073	-0.0462	0.0165	0.9585
6.8816	-5.1296	37.2655	2.4569	-13.0898	-3.8596	33.9139	-59.0144	728.7735	-70.8393	254.2626	107.6444	859.8804	-0.0592	0.0182	-0.0073	-0.0462	0.0165	0.9585
6.8929	-7.0202	20.4569	1.3264	-7.1485	-3.631	18.8076	-54.9601	739.0043	-74.3751	257.2918	109.6879	867.1506	-0.0592	0.0182	-0.0073	-0.0462	0.0165	0.9585
6.9043	-7.1114	8.9315	0.55608	-3.0943	-3.048	8.4737	-51.3204	746.6994	-77.6508	259.4179	111.4927	871.3123	-0.0592	0.0182	-0.0073	-0.0462	0.0165	0.9585
6.9156	-6.04	1.6865	0.074601	-0.55889	-2.2805	1.9794	-48.0668	752.2567	-80.1726	260.8381	112.5117	872.8243	-0.0592	0.0182	-0.0073	-0.0462	0.0165	0.9585
6.927	-4.5183	-2.2018	-0.19982	0.79875	-1.5097	-1.4774	-45.1511	755.9183	-81.7427	261.6607	112.5071	871.9963	-0.0592	0.0182	-0.0073	-0.0462	0.0165	0.9585
6.9384	-2.9465	-3.7518	-0.3123	1.3367	-0.85193	-2.8289	-42.4703	757.6501	-82.4297	261.8783	111.5201	868.819	-0.0592	0.0182	-0.0073	-0.0462	0.0165	0.9585
6.9497	-1.602	-3.8182	-0.32833	1.3555	-0.34766	-2.8224	-39.988	757.4678	-82.4036	261.4803	109.7399	863.38	-0.0592	0.0182	-0.0073	-0.0462	0.0165	0.9585
